<?xml version="1.0" encoding="UTF-8"?>
<!-- Generator: visioncortex VTracer 0.6.1 -->
<svg version="1.1" xmlns="http://www.w3.org/2000/svg" width="1280" height="1022">
<path d="M0 0 C422.4 0 844.8 0 1280 0 C1280 337.26 1280 674.52 1280 1022 C857.6 1022 435.2 1022 0 1022 C0 684.74 0 347.48 0 0 Z " fill="#3FBDBE" transform="translate(0,0)"/>
<path d="M0 0 C4.00897758 2.39631434 4.81668681 4.59576043 5.96484375 9.046875 C6.44860474 10.88366821 6.44860474 10.88366821 6.94213867 12.75756836 C7.27500579 14.08810918 7.60676521 15.41892754 7.9375 16.75 C8.28892503 18.12847548 8.64090027 19.50681081 8.9934082 20.88500977 C9.69561827 23.64919875 10.38548452 26.41604738 11.06445312 29.18603516 C11.62509879 31.47163188 12.19200031 33.75572781 12.77148438 36.03662109 C16.10110344 49.19529471 18.01535751 62.49311158 19.75 75.9375 C19.85718353 76.76394012 19.96436707 77.59038025 20.07479858 78.44186401 C22.42708297 96.79305923 23.20780746 114.94887567 23.1875 133.4375 C23.18689575 134.45601044 23.1862915 135.47452087 23.18566895 136.52389526 C23.16112962 151.77553748 22.86380583 166.84483619 21 182 C20.79068848 183.72742432 20.79068848 183.72742432 20.57714844 185.48974609 C18.6402262 201.11055106 16.16778101 216.58234241 13 232 C13.94230469 232.28746094 14.88460938 232.57492187 15.85546875 232.87109375 C19.76392863 234.27425512 20.93542128 235.40610371 23 239 C24.20328025 243.91851782 24.61460448 247.53085048 22 252 C21.34 252 20.68 252 20 252 C19.95875 252.9075 19.9175 253.815 19.875 254.75 C19 258 19 258 16.375 260.375 C12.57996823 262.20223752 10.16049325 262.4078915 6 262 C5.67 261.67 5.34 261.34 5 261 C3.515 266.445 3.515 266.445 2 272 C3.98 272.33 5.96 272.66 8 273 C9.17745616 277.31733926 8.63788234 280.60569943 8 285 C7.26155385 292.40180143 7.26155385 292.40180143 10 299.0625 C16.37889751 303.18220464 23.14270288 303.28077339 30.5 303.125 C31.32242187 303.11597656 32.14484375 303.10695313 32.9921875 303.09765625 C34.99492083 303.07436865 36.99750154 303.03850959 39 303 C39.0276368 300.29159356 39.04713583 297.58348395 39.0625 294.875 C39.07087891 294.13378906 39.07925781 293.39257812 39.08789062 292.62890625 C39.1079922 287.84473082 38.89106475 283.12244834 38.52734375 278.3515625 C37.94715553 270.73871187 37.70142948 263.13069712 37.5 255.5 C37.18688609 243.81312633 37.18688609 243.81312633 36.609375 232.13671875 C36.54943359 231.1209375 36.48949219 230.10515625 36.42773438 229.05859375 C36.31217308 227.19183431 36.18395284 225.32580054 36.04101562 223.4609375 C35.67451242 217.41601456 35.67451242 217.41601456 37.31933594 215.3137207 C41.13429772 212.33168855 45.09175479 213.0341545 49.625 213.375 C50.31851562 213.41882813 51.01203125 213.46265625 51.7265625 213.5078125 C56.86941964 213.86941964 56.86941964 213.86941964 58 215 C58.91769777 220.96863516 59.27306809 226.91697712 59.53515625 232.9453125 C59.57835999 233.89727005 59.62156372 234.8492276 59.66607666 235.83003235 C59.80372256 238.92814687 59.93441897 242.0264758 60.0625 245.125 C60.12828751 246.71237473 60.12828751 246.71237473 60.19540405 248.33181763 C60.75927008 262.21935759 61.22259611 276.1058669 61.29855347 290.0055542 C61.30775615 291.61028539 61.32175331 293.21499718 61.34085083 294.81964111 C61.55159658 314.6015379 61.55159658 314.6015379 55.0625 322.3125 C48.92664687 328.54787154 40.59976311 330.16254838 32.08984375 330.53125 C29.70572937 330.54171238 27.32143434 330.5311117 24.9375 330.5 C23.74833984 330.51546875 22.55917969 330.5309375 21.33398438 330.546875 C9.89089778 330.49660334 1.24761461 328.06433428 -7 320 C-7.50789063 320.39832031 -8.01578125 320.79664063 -8.5390625 321.20703125 C-18.66423358 329 -18.66423358 329 -23 329 C-23.24234375 329.8146875 -23.4846875 330.629375 -23.734375 331.46875 C-34.2238486 360.73567633 -56.18399809 388.42469226 -76 412 C-76.94586439 413.14016738 -77.89119422 414.28077849 -78.8359375 415.421875 C-88.27307394 426.76560555 -98.33878891 437.42151601 -108.75 447.875 C-109.54212891 448.67180176 -110.33425781 449.46860352 -111.15039062 450.28955078 C-115.93883062 455.06496783 -120.85352493 459.61409447 -126 464 C-126.53898926 464.46599609 -127.07797852 464.93199219 -127.63330078 465.41210938 C-135.53190539 472.23762962 -143.62784479 478.76375776 -152 485 C-152.66628418 485.49757813 -153.33256836 485.99515625 -154.01904297 486.5078125 C-176.50945544 503.22762475 -200.47319493 517.52075576 -225.625 529.875 C-226.68605957 530.40544922 -227.74711914 530.93589844 -228.84033203 531.48242188 C-229.83403809 531.96001953 -230.82774414 532.43761719 -231.8515625 532.9296875 C-232.72635254 533.35491699 -233.60114258 533.78014648 -234.50244141 534.21826172 C-237.46581069 535.1457992 -239.0682011 534.95713342 -242 534 C-244.3125 531.9375 -244.3125 531.9375 -246 530 C-245.38253906 529.030625 -244.76507813 528.06125 -244.12890625 527.0625 C-222.27476547 492.56992477 -206.69920002 455.09231824 -203 414 C-202.91532471 413.07501709 -202.83064941 412.15003418 -202.7434082 411.19702148 C-202.05031749 403.06044453 -201.80703191 394.97690241 -201.8125 386.8125 C-201.81330566 385.54962158 -201.81411133 384.28674316 -201.81494141 382.9855957 C-201.88733294 371.87633429 -202.20709602 360.68066607 -205.05078125 349.8828125 C-205.87954901 346.492709 -206.22248376 343.65075651 -206.3125 340.1875 C-206.8654351 331.17040445 -209.52635689 322.64405913 -212 314 C-214.07803521 317.11705282 -214.81561226 319.53620414 -215.8125 323.125 C-219.72209652 336.17636681 -226.34928402 344.8414755 -238 352 C-242.24513322 353.98305519 -246.54128456 355.56808877 -251 357 C-252.07894531 357.35191406 -252.07894531 357.35191406 -253.1796875 357.7109375 C-272.78179958 363.32316046 -298.74605573 361.86970178 -317 353 C-326.07857188 346.28237856 -333.1517934 338.43577836 -335 327 C-336.0852612 312.39345176 -333.47598464 298.74594102 -326 286 C-320.18152382 286.49518946 -315.06083201 288.01091389 -310 291 C-308 294 -308 294 -308.25 296.8125 C-309 300 -309 300 -310.0234375 302.66796875 C-311.20734056 306.70744601 -311.36764637 310.31578539 -311.375 314.5 C-311.39949219 315.23347656 -311.42398437 315.96695312 -311.44921875 316.72265625 C-311.47726066 321.94779965 -310.40149531 324.83706905 -307 329 C-297.52888045 337.49972267 -282.44538881 336.71595295 -270.47607422 336.16845703 C-261.0243908 335.52542197 -251.44492102 334.32523633 -244 328 C-243.195625 327.319375 -242.39125 326.63875 -241.5625 325.9375 C-239.9328711 323.91676016 -239.36416679 322.5491675 -239 320 C-239.81210937 320.165 -240.62421875 320.33 -241.4609375 320.5 C-252.49848696 322.05938889 -263.16954676 321.32273017 -272.5703125 314.96875 C-277.50261037 310.97216137 -281.06132745 307.12759002 -283 301 C-284.30436192 287.01602688 -281.42505637 275.46199529 -273 264 C-267.26740802 257.40623389 -259.35716661 253.0361426 -250.69921875 251.625 C-246.20204972 251.48528213 -242.21393025 252.59535658 -238 254 C-238.47050781 253.33613281 -238.94101562 252.67226563 -239.42578125 251.98828125 C-240.04839844 251.10527344 -240.67101562 250.22226562 -241.3125 249.3125 C-241.92738281 248.44238281 -242.54226563 247.57226562 -243.17578125 246.67578125 C-244.88581306 244.16749048 -246.46636423 241.61897801 -248 239 C-248.680625 239.804375 -249.36125 240.60875 -250.0625 241.4375 C-253.58639206 244.5115335 -255.34975862 245.08158318 -260 245 C-264.84000598 242.57999701 -267.83747646 239.27870832 -271 235 C-271 234.34 -271 233.68 -271 233 C-271.99 232.67 -272.98 232.34 -274 232 C-275.43304064 229.13391871 -275.30644155 227.18699217 -275 224 C-271.87692308 218.29230769 -271.87692308 218.29230769 -268 217 C-270.05668229 212.37923025 -272.39632826 209.22307911 -276 205.6875 C-276.47622803 205.21965088 -276.95245605 204.75180176 -277.44311523 204.26977539 C-281.6802437 200.1714554 -286.16719091 196.44123878 -290.78515625 192.77734375 C-293 191 -293 191 -295 189 C-294.625 186.875 -294.625 186.875 -294 185 C-292.83903809 185.14074951 -291.67807617 185.28149902 -290.48193359 185.42651367 C-277.89014778 186.86704742 -265.43389722 187.34232307 -252.76464844 187.31567383 C-249.63441194 187.31250951 -246.50512117 187.33610891 -243.375 187.36132812 C-225.42291851 187.41852082 -207.87482039 185.65748483 -190.4375 181.25 C-188.88663696 180.86593994 -188.88663696 180.86593994 -187.30444336 180.47412109 C-159.19960608 173.33112224 -131.68249328 161.92281955 -108 145 C-110.05709836 145 -111.98596926 145.2273646 -114.02734375 145.48046875 C-134.72159464 147.80738372 -153.77222175 145.64294247 -170.67382812 132.72021484 C-182.49766248 123.1892551 -189.57996041 111.16941347 -192.8125 96.25 C-192.874375 95.1775 -192.93625 94.105 -193 93 C-193.103125 91.700625 -193.20625 90.40125 -193.3125 89.0625 C-193.0469236 73.49972296 -186.20105105 59.56960786 -175.6484375 48.38671875 C-162.62273881 36.64822037 -144.80777707 29.00890525 -127.09375 29.66015625 C-107.76896904 31.78295416 -90.99591455 38.55255577 -78.53125 54.07421875 C-68.38716575 67.66940415 -65.88690815 81.40183623 -67 98 C-68.02915518 104.22171084 -69.9948222 110.03677559 -72 116 C-47.155285 89.50764247 -25.00849619 60.23927835 -13.36328125 25.36328125 C-13.14369247 24.70753113 -12.9241037 24.05178101 -12.69786072 23.37615967 C-11.61829309 20.12690728 -10.57353466 16.8709335 -9.57397461 13.59619141 C-6.38458009 3.62992492 -6.38458009 3.62992492 -2.703125 1.16015625 C-1.36507812 0.58587891 -1.36507812 0.58587891 0 0 Z " fill="#3FBDBE" transform="translate(717,303)"/>
<path d="M0 0 C4.00897758 2.39631434 4.81668681 4.59576043 5.96484375 9.046875 C6.44860474 10.88366821 6.44860474 10.88366821 6.94213867 12.75756836 C7.27500579 14.08810918 7.60676521 15.41892754 7.9375 16.75 C8.28892503 18.12847548 8.64090027 19.50681081 8.9934082 20.88500977 C9.69561827 23.64919875 10.38548452 26.41604738 11.06445312 29.18603516 C11.62509879 31.47163188 12.19200031 33.75572781 12.77148438 36.03662109 C16.10110344 49.19529471 18.01535751 62.49311158 19.75 75.9375 C19.85718353 76.76394012 19.96436707 77.59038025 20.07479858 78.44186401 C22.42708297 96.79305923 23.20780746 114.94887567 23.1875 133.4375 C23.18689575 134.45601044 23.1862915 135.47452087 23.18566895 136.52389526 C23.16112962 151.77553748 22.86380583 166.84483619 21 182 C20.79068848 183.72742432 20.79068848 183.72742432 20.57714844 185.48974609 C18.6402262 201.11055106 16.16778101 216.58234241 13 232 C13.94230469 232.28746094 14.88460938 232.57492187 15.85546875 232.87109375 C19.76392863 234.27425512 20.93542128 235.40610371 23 239 C24.20328025 243.91851782 24.61460448 247.53085048 22 252 C21.34 252 20.68 252 20 252 C19.95875 252.9075 19.9175 253.815 19.875 254.75 C19 258 19 258 16.375 260.375 C12.57996823 262.20223752 10.16049325 262.4078915 6 262 C5.67 261.67 5.34 261.34 5 261 C3.515 266.445 3.515 266.445 2 272 C3.98 272.33 5.96 272.66 8 273 C9.17745616 277.31733926 8.63788234 280.60569943 8 285 C7.26155385 292.40180143 7.26155385 292.40180143 10 299.0625 C16.37889751 303.18220464 23.14270288 303.28077339 30.5 303.125 C31.32242187 303.11597656 32.14484375 303.10695313 32.9921875 303.09765625 C34.99492083 303.07436865 36.99750154 303.03850959 39 303 C39.0276368 300.29159356 39.04713583 297.58348395 39.0625 294.875 C39.07087891 294.13378906 39.07925781 293.39257812 39.08789062 292.62890625 C39.1079922 287.84473082 38.89106475 283.12244834 38.52734375 278.3515625 C37.94715553 270.73871187 37.70142948 263.13069712 37.5 255.5 C37.18688609 243.81312633 37.18688609 243.81312633 36.609375 232.13671875 C36.54943359 231.1209375 36.48949219 230.10515625 36.42773438 229.05859375 C36.31217308 227.19183431 36.18395284 225.32580054 36.04101562 223.4609375 C35.67451242 217.41601456 35.67451242 217.41601456 37.31933594 215.3137207 C41.13429772 212.33168855 45.09175479 213.0341545 49.625 213.375 C50.31851562 213.41882813 51.01203125 213.46265625 51.7265625 213.5078125 C56.86941964 213.86941964 56.86941964 213.86941964 58 215 C58.91769777 220.96863516 59.27306809 226.91697712 59.53515625 232.9453125 C59.57835999 233.89727005 59.62156372 234.8492276 59.66607666 235.83003235 C59.80372256 238.92814687 59.93441897 242.0264758 60.0625 245.125 C60.12828751 246.71237473 60.12828751 246.71237473 60.19540405 248.33181763 C60.75927008 262.21935759 61.22259611 276.1058669 61.29855347 290.0055542 C61.30775615 291.61028539 61.32175331 293.21499718 61.34085083 294.81964111 C61.55159658 314.6015379 61.55159658 314.6015379 55.0625 322.3125 C48.92664687 328.54787154 40.59976311 330.16254838 32.08984375 330.53125 C29.70572937 330.54171238 27.32143434 330.5311117 24.9375 330.5 C23.74833984 330.51546875 22.55917969 330.5309375 21.33398438 330.546875 C9.89089778 330.49660334 1.24761461 328.06433428 -7 320 C-7.50789063 320.39832031 -8.01578125 320.79664063 -8.5390625 321.20703125 C-15.189288 326.32546324 -20.25187954 329.24205674 -28.73046875 329.7890625 C-31.1643935 329.92864482 -31.1643935 329.92864482 -34 331 C-67.2899296 331.86356778 -67.2899296 331.86356778 -79.22265625 325.88671875 C-81.79370927 324.60401757 -83.28906588 325.20655587 -86 326 C-87.17163696 326.48412354 -87.17163696 326.48412354 -88.36694336 326.97802734 C-99.07593127 331.13452464 -111.05055111 330.35340571 -122.34887695 330.38085938 C-124.67973658 330.39036242 -127.00927935 330.42405166 -129.33984375 330.4609375 C-130.40548805 330.45336929 -130.40548805 330.45336929 -131.49266052 330.44564819 C-134.83722645 330.51236272 -136.68224348 330.75844369 -139.37719727 332.80712891 C-141.20786761 335.11731676 -141.20786761 335.11731676 -142.625 338.625 C-148.00755598 349.76275045 -159.54823429 357.45710763 -170.89794922 361.71142578 C-190.9974304 368.40440405 -190.9974304 368.40440405 -198.21875 364.93359375 C-200.73214986 362.20523206 -201.09791267 359.7399712 -201.8125 356.125 C-202.06644531 354.91070313 -202.32039062 353.69640625 -202.58203125 352.4453125 C-202.97220934 349.22907819 -202.92542981 347.07719604 -202 344 C-200.30867055 342.30867055 -198.02198946 342.36534135 -195.71484375 341.94921875 C-194.62623047 341.74490234 -193.53761719 341.54058594 -192.41601562 341.33007812 C-190.12553093 340.9069622 -187.83387521 340.49012949 -185.54101562 340.08007812 C-179.05561336 338.85002238 -173.66173714 337.4477245 -168 334 C-167.34 333.01 -166.68 332.02 -166 331 C-166.81082031 331.04640625 -167.62164063 331.0928125 -168.45703125 331.140625 C-177.62485178 331.43945966 -185.5467924 330.95402799 -192.6484375 324.6484375 C-199.64983476 317.16113885 -200.56062329 312.10986909 -200.34375 301.95703125 C-199.82181055 295.94879645 -197.8031844 291.28007221 -195 286 C-194.55398438 285.1028125 -194.10796875 284.205625 -193.6484375 283.28125 C-189.33184797 275.2750616 -182.8793751 269.24444213 -174.09765625 266.43359375 C-165.41815625 264.63950716 -158.26552971 266.21434794 -150.9375 271 C-144.99721296 276.36910559 -141.22427085 283.19386934 -140 291 C-139.34 291.33 -138.68 291.66 -138 292 C-136.46989822 296.5714152 -135.84974853 301.19195288 -136 306 C-134.19605125 307.80394875 -131.43322201 307.23705789 -128.99609375 307.31640625 C-127.78115234 307.35830078 -126.56621094 307.40019531 -125.31445312 307.44335938 C-123.39536133 307.50233398 -123.39536133 307.50233398 -121.4375 307.5625 C-120.15423828 307.60568359 -118.87097656 307.64886719 -117.54882812 307.69335938 C-114.36600147 307.799848 -111.18309326 307.90185962 -108 308 C-108.34933594 307.31292969 -108.69867187 306.62585938 -109.05859375 305.91796875 C-109.51363281 305.01691406 -109.96867188 304.11585938 -110.4375 303.1875 C-110.88996094 302.29417969 -111.34242188 301.40085937 -111.80859375 300.48046875 C-115.33907028 293.13013236 -115.17848501 283.73419683 -112.75 276 C-108.55334722 265.4889391 -101.55197368 260.33877076 -91.453125 255.98046875 C-83.93919843 252.97729109 -77.48387349 253.13118544 -69.875 255.9375 C-61.66196045 259.68509517 -55.99353305 266.0971199 -52.6796875 274.484375 C-50.24331271 283.50176214 -49.48660073 295.47469026 -54 304 C-54.98030121 305.01931817 -55.9779088 306.02259038 -57 307 C-52.83357303 307.11703447 -48.6675741 307.18753101 -44.5 307.25 C-42.74042969 307.30027344 -42.74042969 307.30027344 -40.9453125 307.3515625 C-33.77309011 307.43214927 -29.10825508 306.84033859 -23 303 C-23 302.01 -23 301.02 -23 300 C-22.34 300 -21.68 300 -21 300 C-18.56660768 294.66071199 -16.79660086 289.63529472 -15.9375 283.8125 C-15.22241411 279.028822 -14.50245848 275.17076414 -12 271 C-9.39453125 270.32421875 -9.39453125 270.32421875 -7 270 C-6.80664062 269.18015625 -6.61328125 268.3603125 -6.4140625 267.515625 C-6.02347656 265.89914062 -6.02347656 265.89914062 -5.625 264.25 C-5.36976563 263.18265625 -5.11453125 262.1153125 -4.8515625 261.015625 C-4.11869169 258.42032102 -3.2253767 256.37603531 -2 254 C-1.44127156 251.97848948 -1.00319086 249.95234321 -0.5625 247.90234375 C0 246 0 246 2 243 C1.67 242.01 1.34 241.02 1 240 C1.3737793 237.66943359 1.3737793 237.66943359 2.07421875 234.8984375 C2.32776123 233.86477051 2.58130371 232.83110352 2.8425293 231.76611328 C3.12136963 230.6470459 3.40020996 229.52797852 3.6875 228.375 C14.54326285 182.74495598 17.16973158 134.62466839 12 88 C11.90348145 87.04947754 11.80696289 86.09895508 11.70751953 85.11962891 C9.3205138 61.73951526 4.88462004 38.48163535 -2 16 C-2.26139771 16.7875769 -2.26139771 16.7875769 -2.52807617 17.59106445 C-14.03200241 51.76503239 -31.06272304 83.29120653 -55.82421875 109.671875 C-57.69063466 111.66897354 -59.44296363 113.71022326 -61.1875 115.8125 C-102.30787472 162.77982777 -165.52339854 188.970937 -226.77954102 193.80810547 C-232.6642743 194.15875367 -238.54372674 194.19054706 -244.4375 194.1875 C-246.38873779 194.1884668 -246.38873779 194.1884668 -248.37939453 194.18945312 C-259.34436737 194.13008819 -270.12361973 193.34454149 -281 192 C-276.5372288 197.33377851 -271.78239109 202.32722926 -266.875 207.25 C-266.2773584 207.85215332 -265.6797168 208.45430664 -265.06396484 209.07470703 C-262.53495646 211.59529241 -260.05347807 213.95795988 -257.2421875 216.16796875 C-255.00014597 217.99988073 -253.71818441 219.58851393 -252.25 222.0625 C-251.84265625 222.73410156 -251.4353125 223.40570312 -251.015625 224.09765625 C-250 226 -250 226 -249 229 C-248.34 229 -247.68 229 -247 229 C-246.9175 228.13375 -246.835 227.2675 -246.75 226.375 C-245.74591153 221.8566019 -243.9224817 218.4584344 -240.1875 215.625 C-236.90160407 214.68617259 -234.40178565 214.58223685 -231 215 C-225.98802564 218.66729831 -222.61681617 224.42618157 -220 230 C-219.40091926 234.06043611 -219.56597065 236.04513544 -221.25 239.75 C-224.36111111 243.75 -224.36111111 243.75 -227 245 C-230.05241846 244.94190899 -232.99697272 244.53258817 -236 244 C-235.00352555 246.98942334 -233.75143458 249.23664293 -232.12890625 251.9296875 C-231.55462891 252.89003906 -230.98035156 253.85039063 -230.38867188 254.83984375 C-229.17571336 256.85581973 -227.96217592 258.87144751 -226.74804688 260.88671875 C-226.17248047 261.84964844 -225.59691406 262.81257813 -225.00390625 263.8046875 C-224.47611572 264.68108887 -223.9483252 265.55749023 -223.40454102 266.46044922 C-222.04128331 268.92535565 -220.9987653 271.36983571 -220 274 C-219.5978125 274.86753906 -219.195625 275.73507812 -218.78125 276.62890625 C-212.91746288 290.05483348 -210.59095205 307.84191999 -215.1875 321.875 C-215.41236084 322.57536377 -215.63722168 323.27572754 -215.86889648 323.99731445 C-220.04075299 336.53611742 -226.67330929 345.04056566 -238 352 C-242.24513322 353.98305519 -246.54128456 355.56808877 -251 357 C-252.07894531 357.35191406 -252.07894531 357.35191406 -253.1796875 357.7109375 C-272.78179958 363.32316046 -298.74605573 361.86970178 -317 353 C-326.07857188 346.28237856 -333.1517934 338.43577836 -335 327 C-336.0852612 312.39345176 -333.47598464 298.74594102 -326 286 C-320.18152382 286.49518946 -315.06083201 288.01091389 -310 291 C-308 294 -308 294 -308.25 296.8125 C-309 300 -309 300 -310.0234375 302.66796875 C-311.20734056 306.70744601 -311.36764637 310.31578539 -311.375 314.5 C-311.39949219 315.23347656 -311.42398437 315.96695312 -311.44921875 316.72265625 C-311.47726066 321.94779965 -310.40149531 324.83706905 -307 329 C-297.52888045 337.49972267 -282.44538881 336.71595295 -270.47607422 336.16845703 C-261.0243908 335.52542197 -251.44492102 334.32523633 -244 328 C-243.195625 327.319375 -242.39125 326.63875 -241.5625 325.9375 C-239.9328711 323.91676016 -239.36416679 322.5491675 -239 320 C-239.81210937 320.165 -240.62421875 320.33 -241.4609375 320.5 C-252.49848696 322.05938889 -263.16954676 321.32273017 -272.5703125 314.96875 C-277.50261037 310.97216137 -281.06132745 307.12759002 -283 301 C-284.30436192 287.01602688 -281.42505637 275.46199529 -273 264 C-267.26740802 257.40623389 -259.35716661 253.0361426 -250.69921875 251.625 C-246.20204972 251.48528213 -242.21393025 252.59535658 -238 254 C-238.47050781 253.33613281 -238.94101562 252.67226563 -239.42578125 251.98828125 C-240.04839844 251.10527344 -240.67101562 250.22226562 -241.3125 249.3125 C-241.92738281 248.44238281 -242.54226563 247.57226562 -243.17578125 246.67578125 C-244.88581306 244.16749048 -246.46636423 241.61897801 -248 239 C-248.680625 239.804375 -249.36125 240.60875 -250.0625 241.4375 C-253.58639206 244.5115335 -255.34975862 245.08158318 -260 245 C-264.84000598 242.57999701 -267.83747646 239.27870832 -271 235 C-271 234.34 -271 233.68 -271 233 C-271.99 232.67 -272.98 232.34 -274 232 C-275.43304064 229.13391871 -275.30644155 227.18699217 -275 224 C-271.87692308 218.29230769 -271.87692308 218.29230769 -268 217 C-270.05668229 212.37923025 -272.39632826 209.22307911 -276 205.6875 C-276.47622803 205.21965088 -276.95245605 204.75180176 -277.44311523 204.26977539 C-281.6802437 200.1714554 -286.16719091 196.44123878 -290.78515625 192.77734375 C-293 191 -293 191 -295 189 C-294.625 186.875 -294.625 186.875 -294 185 C-292.83903809 185.14074951 -291.67807617 185.28149902 -290.48193359 185.42651367 C-277.89014778 186.86704742 -265.43389722 187.34232307 -252.76464844 187.31567383 C-249.63441194 187.31250951 -246.50512117 187.33610891 -243.375 187.36132812 C-225.42291851 187.41852082 -207.87482039 185.65748483 -190.4375 181.25 C-188.88663696 180.86593994 -188.88663696 180.86593994 -187.30444336 180.47412109 C-159.19960608 173.33112224 -131.68249328 161.92281955 -108 145 C-110.05709836 145 -111.98596926 145.2273646 -114.02734375 145.48046875 C-134.72159464 147.80738372 -153.77222175 145.64294247 -170.67382812 132.72021484 C-182.49766248 123.1892551 -189.57996041 111.16941347 -192.8125 96.25 C-192.874375 95.1775 -192.93625 94.105 -193 93 C-193.103125 91.700625 -193.20625 90.40125 -193.3125 89.0625 C-193.0469236 73.49972296 -186.20105105 59.56960786 -175.6484375 48.38671875 C-162.62273881 36.64822037 -144.80777707 29.00890525 -127.09375 29.66015625 C-107.76896904 31.78295416 -90.99591455 38.55255577 -78.53125 54.07421875 C-68.38716575 67.66940415 -65.88690815 81.40183623 -67 98 C-68.02915518 104.22171084 -69.9948222 110.03677559 -72 116 C-47.155285 89.50764247 -25.00849619 60.23927835 -13.36328125 25.36328125 C-13.14369247 24.70753113 -12.9241037 24.05178101 -12.69786072 23.37615967 C-11.61829309 20.12690728 -10.57353466 16.8709335 -9.57397461 13.59619141 C-6.38458009 3.62992492 -6.38458009 3.62992492 -2.703125 1.16015625 C-1.36507812 0.58587891 -1.36507812 0.58587891 0 0 Z " fill="#EFF6E8" transform="translate(717,303)"/>
<path d="M0 0 C9.51342148 2.6512814 18.56729711 3.4435403 28.4375 3.6875 C29.72785156 3.72617187 31.01820313 3.76484375 32.34765625 3.8046875 C35.5024687 3.89816342 38.65728727 3.98392313 41.8125 4.0625 C41.30656131 7.70197369 40.7499295 10.70576225 38.94921875 13.91796875 C38.56338623 14.61277344 38.17755371 15.30757812 37.7800293 16.0234375 C37.35761963 16.75820313 36.93520996 17.49296875 36.5 18.25 C36.0563208 19.03246094 35.6126416 19.81492187 35.15551758 20.62109375 C15.16460624 55.51230047 -9.8050689 86.9227185 -38.2590332 115.2644043 C-39.88806572 116.88802229 -41.51160728 118.51699603 -43.13476562 120.14648438 C-48.6445911 125.66049554 -54.20550505 131.05659569 -60.1875 136.0625 C-60.78876709 136.57047119 -61.39003418 137.07844238 -62.00952148 137.60180664 C-88.9694741 160.20117342 -121.18874507 184.03977707 -154.1875 197.0625 C-154.8475 196.7325 -155.5075 196.4025 -156.1875 196.0625 C-155.7028125 195.10472656 -155.218125 194.14695312 -154.71875 193.16015625 C-152.52164613 188.8041542 -150.34985435 184.43584297 -148.1875 180.0625 C-147.84589844 179.37349609 -147.50429688 178.68449219 -147.15234375 177.97460938 C-134.78584886 152.87789915 -126.53713472 126.70442865 -122.1875 99.0625 C-122.06890625 98.32580078 -121.9503125 97.58910156 -121.828125 96.83007812 C-118.98647941 78.13949257 -120.00416073 58.90977658 -120.1875 40.0625 C-119.11081055 39.86624023 -118.03412109 39.66998047 -116.92480469 39.46777344 C-115.48630464 39.20260132 -114.04782939 38.93729467 -112.609375 38.671875 C-111.90280762 38.54345215 -111.19624023 38.4150293 -110.46826172 38.28271484 C-94.77262457 35.37477747 -80.39940882 29.92869465 -70.1875 17.0625 C-68.4648432 14.21029412 -66.92062011 11.34977602 -65.4765625 8.34765625 C-64.1875 6.0625 -64.1875 6.0625 -61.1875 4.0625 C-58.66833106 3.85738482 -56.25073991 3.76154382 -53.73046875 3.75390625 C-52.20898136 3.72869716 -50.68749707 3.70330003 -49.16601562 3.67773438 C-46.78817978 3.64930822 -44.41039987 3.62528408 -42.0324707 3.60620117 C-28.47270204 3.47632653 -12.1253056 -3.56626635 0 0 Z " fill="#3FBDBE" transform="translate(641.1875,628.9375)"/>
<path d="M0 0 C0.74572266 0.04382813 1.49144531 0.08765625 2.25976562 0.1328125 C7.8081496 0.4956496 7.8081496 0.4956496 8.9375 1.625 C9.85519777 7.59363516 10.21056809 13.54197712 10.47265625 19.5703125 C10.51585999 20.52227005 10.55906372 21.4742276 10.60357666 22.45503235 C10.74122256 25.55314687 10.87191897 28.6514758 11 31.75 C11.04385834 32.80824982 11.08771667 33.86649963 11.13290405 34.95681763 C11.69677008 48.84435759 12.16009611 62.7308669 12.23605347 76.6305542 C12.24525615 78.23528539 12.25925331 79.83999718 12.27835083 81.44464111 C12.48909658 101.2265379 12.48909658 101.2265379 6 108.9375 C-0.13585313 115.17287154 -8.46273689 116.78754838 -16.97265625 117.15625 C-19.35677063 117.16671238 -21.74106566 117.1561117 -24.125 117.125 C-25.90874023 117.14820313 -25.90874023 117.14820313 -27.72851562 117.171875 C-39.17160222 117.12160334 -47.81488539 114.68933428 -56.0625 106.625 C-56.57039062 107.02332031 -57.07828125 107.42164063 -57.6015625 107.83203125 C-64.251788 112.95046324 -69.31437954 115.86705674 -77.79296875 116.4140625 C-80.2268935 116.55364482 -80.2268935 116.55364482 -83.0625 117.625 C-116.3524296 118.48856778 -116.3524296 118.48856778 -128.28515625 112.51171875 C-130.85620927 111.22901757 -132.35156588 111.83155587 -135.0625 112.625 C-135.84359131 112.94774902 -136.62468262 113.27049805 -137.42944336 113.60302734 C-148.13843127 117.75952464 -160.11305111 116.97840571 -171.41137695 117.00585938 C-173.74223658 117.01536242 -176.07177935 117.04905166 -178.40234375 117.0859375 C-179.46798805 117.07836929 -179.46798805 117.07836929 -180.55516052 117.07064819 C-183.89972645 117.13736272 -185.74474348 117.38344369 -188.43969727 119.43212891 C-190.27036761 121.74231676 -190.27036761 121.74231676 -191.6875 125.25 C-197.07005598 136.38775045 -208.61073429 144.08210763 -219.96044922 148.33642578 C-240.0599304 155.02940405 -240.0599304 155.02940405 -247.28125 151.55859375 C-249.79464986 148.83023206 -250.16041267 146.3649712 -250.875 142.75 C-251.25591797 140.92855469 -251.25591797 140.92855469 -251.64453125 139.0703125 C-252.03470934 135.85407819 -251.98792981 133.70219604 -251.0625 130.625 C-249.37117055 128.93367055 -247.08448946 128.99034135 -244.77734375 128.57421875 C-243.68873047 128.36990234 -242.60011719 128.16558594 -241.47851562 127.95507812 C-239.18803093 127.5319622 -236.89637521 127.11512949 -234.60351562 126.70507812 C-228.11811336 125.47502238 -222.72423714 124.0727245 -217.0625 120.625 C-216.0725 119.14 -216.0725 119.14 -215.0625 117.625 C-215.87332031 117.67140625 -216.68414063 117.7178125 -217.51953125 117.765625 C-226.68735178 118.06445966 -234.6092924 117.57902799 -241.7109375 111.2734375 C-248.71233476 103.78613885 -249.62312329 98.73486909 -249.40625 88.58203125 C-248.88431055 82.57379645 -246.8656844 77.90507221 -244.0625 72.625 C-243.61648438 71.7278125 -243.17046875 70.830625 -242.7109375 69.90625 C-238.39434797 61.9000616 -231.9418751 55.86944213 -223.16015625 53.05859375 C-214.48065625 51.26450716 -207.32802971 52.83934794 -200 57.625 C-194.05971296 62.99410559 -190.28677085 69.81886934 -189.0625 77.625 C-188.4025 77.955 -187.7425 78.285 -187.0625 78.625 C-185.53239822 83.1964152 -184.91224853 87.81695288 -185.0625 92.625 C-183.25855125 94.42894875 -180.49572201 93.86205789 -178.05859375 93.94140625 C-176.84365234 93.98330078 -175.62871094 94.02519531 -174.37695312 94.06835938 C-173.09755859 94.10767578 -171.81816406 94.14699219 -170.5 94.1875 C-168.57510742 94.25227539 -168.57510742 94.25227539 -166.61132812 94.31835938 C-163.42850147 94.424848 -160.24559326 94.52685962 -157.0625 94.625 C-157.41183594 93.93792969 -157.76117187 93.25085938 -158.12109375 92.54296875 C-158.57613281 91.64191406 -159.03117188 90.74085938 -159.5 89.8125 C-159.95246094 88.91917969 -160.40492188 88.02585937 -160.87109375 87.10546875 C-164.40157028 79.75513236 -164.24098501 70.35919683 -161.8125 62.625 C-157.61584722 52.1139391 -150.61447368 46.96377076 -140.515625 42.60546875 C-133.00169843 39.60229109 -126.54637349 39.75618544 -118.9375 42.5625 C-110.72446045 46.31009517 -105.05603305 52.7221199 -101.7421875 61.109375 C-99.30581271 70.12676214 -98.54910073 82.09969026 -103.0625 90.625 C-104.04280121 91.64431817 -105.0404088 92.64759038 -106.0625 93.625 C-101.89607303 93.74203447 -97.7300741 93.81253101 -93.5625 93.875 C-92.38945313 93.90851563 -91.21640625 93.94203125 -90.0078125 93.9765625 C-82.83559011 94.05714927 -78.17075508 93.46533859 -72.0625 89.625 C-72.0625 88.635 -72.0625 87.645 -72.0625 86.625 C-71.4025 86.625 -70.7425 86.625 -70.0625 86.625 C-67.14298095 80.219065 -65.47418753 74.2885859 -64.65234375 67.2890625 C-64.00772437 64.37760281 -63.00743618 62.84929016 -61.0625 60.625 C-60.093125 60.91375 -59.12375 61.2025 -58.125 61.5 C-54.41266151 62.57042889 -50.66643856 63.38419226 -46.8828125 64.16015625 C-45.0625 64.625 -45.0625 64.625 -44.0625 65.625 C-44.09452541 67.05958863 -44.19468077 68.49278785 -44.32421875 69.921875 C-44.39060547 70.7984375 -44.45699219 71.675 -44.52539062 72.578125 C-44.67396215 74.42816344 -44.83522492 76.27723074 -45.00976562 78.125 C-45.30078378 82.22925608 -45.45193621 84.84818265 -43.58203125 88.578125 C-37.56548748 93.46598382 -31.29186643 94.09371099 -23.75 93.9375 C-22.95271484 93.94072266 -22.15542969 93.94394531 -21.33398438 93.94726562 C-17.41730241 93.91103055 -15.38674195 93.8411613 -12.0625 91.625 C-12.3925 90.965 -12.7225 90.305 -13.0625 89.625 C-12.0725 89.625 -11.0825 89.625 -10.0625 89.625 C-10.0348632 86.91659356 -10.01536417 84.20848395 -10 81.5 C-9.99162109 80.75878906 -9.98324219 80.01757812 -9.97460938 79.25390625 C-9.9545078 74.46973082 -10.17143525 69.74744834 -10.53515625 64.9765625 C-11.11534447 57.36371187 -11.36107052 49.75569712 -11.5625 42.125 C-11.87561391 30.43812633 -11.87561391 30.43812633 -12.453125 18.76171875 C-12.51306641 17.7459375 -12.57300781 16.73015625 -12.63476562 15.68359375 C-12.75032692 13.81683431 -12.87854716 11.95080054 -13.02148438 10.0859375 C-13.38904981 4.02349462 -13.38904981 4.02349462 -11.68066406 1.9387207 C-7.98476437 -1.06182791 -4.50168162 -0.31288838 0 0 Z " fill="#D07346" transform="translate(766.0625,516.375)"/>
<path d="M0 0 C1.24676002 1.02054377 2.47675818 2.06197395 3.6875 3.125 C4.26886719 3.61355469 4.85023438 4.10210937 5.44921875 4.60546875 C14.95888524 13.26033376 20.99061388 24.95596977 21.9609375 37.72265625 C22.36555599 53.02034771 18.58666309 66.08859724 7.9375 77.4375 C-6.4246566 90.72249485 -22.88308375 93.99145638 -41.78125 93.29101562 C-58.0224172 92.22581562 -71.11782047 83.46793257 -82.03515625 71.94140625 C-85.51172193 67.64191422 -87.58262255 63.35097432 -89.3125 58.125 C-89.63992188 57.16722656 -89.96734375 56.20945312 -90.3046875 55.22265625 C-94.30193015 41.76291439 -91.31404695 29.79068619 -85.125 17.5625 C-76.91727054 3.61684417 -64.48758708 -4.13162724 -49.3125 -8.875 C-32.44535336 -13.21033086 -14.30918953 -10.33900977 0 0 Z " fill="#3FBDBE" transform="translate(621.3125,348.875)"/>
<path d="M0 0 C3.96906373 2.76082515 6.22933668 5.50329352 8.625 9.6875 C9.19476563 10.66074219 9.76453125 11.63398437 10.3515625 12.63671875 C13.95962972 19.99820187 15.51240807 26.9867358 16.1875 35.125 C16.26935547 35.97964844 16.35121094 36.83429687 16.43554688 37.71484375 C17.15157699 45.54905561 17.29219215 52.30459745 14.8125 59.875 C14.58763916 60.57536377 14.36277832 61.27572754 14.13110352 61.99731445 C9.95924701 74.53611742 3.32669071 83.04056566 -8 90 C-12.24513322 91.98305519 -16.54128456 93.56808877 -21 95 C-21.71929687 95.23460937 -22.43859375 95.46921875 -23.1796875 95.7109375 C-42.78179958 101.32316046 -68.74605573 99.86970178 -87 91 C-96.07857188 84.28237856 -103.1517934 76.43577836 -105 65 C-106.0852612 50.39345176 -103.47598464 36.74594102 -96 24 C-90.18152382 24.49518946 -85.06083201 26.01091389 -80 29 C-78 32 -78 32 -78.25 34.8125 C-79 38 -79 38 -80.0234375 40.66796875 C-81.20734056 44.70744601 -81.36764637 48.31578539 -81.375 52.5 C-81.39949219 53.23347656 -81.42398437 53.96695313 -81.44921875 54.72265625 C-81.47726066 59.94779965 -80.40149531 62.83706905 -77 67 C-67.52888045 75.49972267 -52.44538881 74.71595295 -40.47607422 74.16845703 C-31.0243908 73.52542197 -21.44492102 72.32523633 -14 66 C-13.195625 65.319375 -12.39125 64.63875 -11.5625 63.9375 C-9.9328711 61.91676016 -9.36416679 60.5491675 -9 58 C-9.80953125 58.16628906 -10.6190625 58.33257813 -11.453125 58.50390625 C-21.51318899 59.91098568 -32.66735799 59.75721441 -41.14453125 53.6875 C-45.51082913 49.71646698 -47.78867069 45.60538854 -48.2734375 39.62890625 C-48.75889346 25.91562403 -44.77439573 14.5594948 -35.4140625 4.25390625 C-25.18723752 -5.37275295 -12.16426267 -6.62390102 0 0 Z " fill="#D17346" transform="translate(487,565)"/>
<path d="M0 0 C0.66 0 1.32 0 2 0 C6.38573588 11.35299161 10.41222476 22.7194041 13.5 34.5 C13.75475098 35.4597876 14.00950195 36.4195752 14.27197266 37.40844727 C15.44493191 42.03411524 16.32093089 46.1860366 16 51 C26.32890475 50.66190164 36.0003025 49.12589282 45.25390625 44.3046875 C46.16011719 43.87414062 47.06632813 43.44359375 48 43 C48.66 43.33 49.32 43.66 50 44 C48.3448626 47.90343365 46.40641295 49.2839437 42.52734375 51.07617188 C37.49636282 52.91516259 32.25646488 53.79263698 27 54.75 C25.84371094 54.97042969 24.68742188 55.19085937 23.49609375 55.41796875 C20.66588322 55.95594265 17.83409767 56.48296867 15 57 C13.97918617 61.43710587 14.24310203 64.58020507 15.1875 69.0625 C15.42855469 70.27035156 15.66960938 71.47820312 15.91796875 72.72265625 C16.69954379 76.05079324 16.69954379 76.05079324 19.03662109 77.71801758 C21.77344427 80.89895344 21.55703217 83.78620296 21.49609375 87.7890625 C21.49890854 88.55626114 21.50172333 89.32345978 21.50462341 90.11390686 C21.50539467 92.61831267 21.47383347 95.12087494 21.4375 97.625 C21.4267746 98.91019028 21.4267746 98.91019028 21.41583252 100.22134399 C21.02659923 144.91064785 10.51111652 187.58042609 -11.25756836 226.71069336 C-13.44441883 230.61698427 -13.44441883 230.61698427 -14 235 C-1.32420621 228.85475936 10.99335105 222.36827091 23 215 C23.75104004 214.54399414 24.50208008 214.08798828 25.27587891 213.61816406 C46.55790646 200.66311324 66.45042307 185.63248046 85 169 C85.69295166 168.38914551 86.38590332 167.77829102 87.09985352 167.14892578 C93.59270501 161.38517459 99.80476084 155.38146955 105.94116211 149.24414062 C107.55890192 147.6285932 109.18450636 146.02124966 110.81054688 144.4140625 C117.32806993 137.93114456 123.2732115 131.20335889 129 124 C129.93467346 122.89808186 130.87602664 121.80174153 131.828125 120.71484375 C147.12648214 103.17108257 160.07786055 83.48868697 171.9375 63.5 C172.46923828 62.60442383 173.00097656 61.70884766 173.54882812 60.78613281 C176.56972398 55.63070028 179.25295575 50.47624939 181.60058594 44.97705078 C183.49282679 42.30374889 185.16495549 42.02655351 188.3125 41.375 C189.87092476 41.20664462 191.43393625 41.06689981 193 41 C192.09196587 46.41207294 189.85773679 50.62332586 187.3125 55.4375 C186.82628174 56.35909912 186.34006348 57.28069824 185.83911133 58.23022461 C173.07012645 82.01243381 157.35119296 104.35710163 140 125 C139.05413561 126.14016738 138.10880578 127.28077849 137.1640625 128.421875 C127.72692606 139.76560555 117.66121109 150.42151601 107.25 160.875 C106.45787109 161.67180176 105.66574219 162.46860352 104.84960938 163.28955078 C100.06116938 168.06496783 95.14647507 172.61409447 90 177 C89.19151611 177.69899414 89.19151611 177.69899414 88.36669922 178.41210938 C80.46809461 185.23762962 72.37215521 191.76375776 64 198 C63.33371582 198.49757813 62.66743164 198.99515625 61.98095703 199.5078125 C39.49054456 216.22762475 15.52680507 230.52075576 -9.625 242.875 C-10.68605957 243.40544922 -11.74711914 243.93589844 -12.84033203 244.48242188 C-14.33089111 245.19881836 -14.33089111 245.19881836 -15.8515625 245.9296875 C-17.16374756 246.56753174 -17.16374756 246.56753174 -18.50244141 247.21826172 C-21.46581069 248.1457992 -23.0682011 247.95713342 -26 247 C-28.3125 244.9375 -28.3125 244.9375 -30 243 C-29.38253906 242.030625 -28.76507813 241.06125 -28.12890625 240.0625 C-6.27476547 205.56992477 9.30079998 168.09231824 13 127 C13.08467529 126.07501709 13.16935059 125.15003418 13.2565918 124.19702148 C13.94968251 116.06044453 14.19296809 107.97690241 14.1875 99.8125 C14.18669434 98.54962158 14.18588867 97.28674316 14.18505859 95.9855957 C14.11387226 85.06128469 13.90371551 73.92863901 10.9921875 63.33203125 C10.05457336 59.80471398 9.79079708 56.42685593 9.58984375 52.78515625 C9.14307214 45.99755161 7.51941196 39.92607727 5.5625 33.4375 C2.36071994 22.29068176 0.63943549 11.56203761 0 0 Z " fill="#EFF6E8" transform="translate(501,590)"/>
<path d="M0 0 C1.66015625 2.00390625 1.66015625 2.00390625 3.0625 4.5625 C3.56523438 5.46097656 4.06796875 6.35945312 4.5859375 7.28515625 C5.82935265 9.67237594 7.02142261 12.07438101 8.1875 14.5 C9.72975499 18.16922954 9.72975499 18.16922954 13 20 C15.05409082 20.47973959 15.05409082 20.47973959 17.30859375 20.7109375 C18.13810547 20.82179687 18.96761719 20.93265625 19.82226562 21.046875 C21.56095942 21.26502329 23.300568 21.47600421 25.04101562 21.6796875 C28.75731521 22.18711087 31.40918471 22.62152283 34.59765625 24.6640625 C36.66604046 28.10944902 36.7007066 30.04480673 36 34 C34.18537715 36.54209351 31.96893222 38.51279556 29.625 40.5625 C23.71186741 45.74506404 23.71186741 45.74506404 21 53 C21.18107769 55.91732164 21.18107769 55.91732164 21.875 58.8125 C22.87619758 64.03303024 23.34264084 68.68906699 23 74 C21 76 21 76 18.40625 76.4140625 C12.98564286 75.75513548 8.88355777 72.8244042 4.27734375 70.0234375 C-0.13505496 67.4305354 -0.13505496 67.4305354 -5.125 67.5 C-9.41363552 69.73754897 -13.60320456 72.10186933 -17.78125 74.5390625 C-21.25612453 76.1162507 -23.2377708 76.52712552 -27 76 C-29.38671875 74.875 -29.38671875 74.875 -31 73 C-31.20703125 70.25 -31.20703125 70.25 -30.8125 67 C-30.69519531 65.84113281 -30.57789063 64.68226563 -30.45703125 63.48828125 C-30.17186477 61.31175419 -29.84312445 59.13996597 -29.44921875 56.98046875 C-28.55182573 51.7235798 -28.55182573 51.7235798 -30.21484375 46.8203125 C-32.02865434 44.70625662 -33.922984 42.85597576 -36 41 C-43.95269168 33.83578032 -43.95269168 33.83578032 -44.1875 29.6875 C-42.34207765 25.51101784 -42.34207765 25.51101784 -40 24 C-36.18974615 22.80047564 -32.78751755 22.0528213 -28.796875 21.78515625 C-22.24793573 21.3909021 -22.24793573 21.3909021 -16.97265625 17.9296875 C-15.41870264 15.3437189 -14.17224718 12.77850976 -13 10 C-7.18031163 -2.36424895 -7.18031163 -2.36424895 0 0 Z " fill="#F0F7E9" transform="translate(721,230)"/>
<path d="M0 0 C0.68449219 0.05285156 1.36898437 0.10570312 2.07421875 0.16015625 C7.08698593 0.58698593 7.08698593 0.58698593 8.25 1.75 C9.33963444 12.02263104 9.48598966 22.40686979 9.75 32.7265625 C9.79072823 34.22749603 9.83175119 35.72842158 9.87304688 37.2293396 C9.98038383 41.15366269 10.08441873 45.07806552 10.1875 49.00250244 C10.35102091 55.20974976 10.51909774 61.41687621 10.68777466 67.62398529 C10.72913375 69.14612255 10.77037389 70.66826304 10.81149292 72.1904068 C11.21388609 87.04645634 11.70912509 101.89833138 12.25 116.75 C9.54572635 116.76545299 6.84145265 116.7808534 4.13717651 116.79586792 C2.04464175 116.80818905 -0.04787661 116.82336916 -2.14038086 116.84008789 C-3.47661499 116.84383423 -3.47661499 116.84383423 -4.83984375 116.84765625 C-6.21450806 116.85551147 -6.21450806 116.85551147 -7.61694336 116.86352539 C-9.75 116.75 -9.75 116.75 -10.75 115.75 C-10.86775653 114.13807106 -10.91731453 112.52110213 -10.93945312 110.9050293 C-10.95617065 109.8685173 -10.97288818 108.83200531 -10.9901123 107.76408386 C-11.00368774 106.62892838 -11.01726318 105.49377289 -11.03125 104.32421875 C-11.04965942 103.1522847 -11.06806885 101.98035065 -11.08703613 100.77290344 C-11.14598855 96.99448866 -11.19855226 93.21602391 -11.25 89.4375 C-11.53338729 68.6177196 -11.53338729 68.6177196 -12.39041138 47.81622314 C-12.83646433 39.60328241 -13.03970131 31.39516706 -13.10009766 23.1706543 C-13.11700582 21.48464495 -13.14472265 19.79871626 -13.18212891 18.11303711 C-13.23651328 15.62577977 -13.25866034 13.14011217 -13.2734375 10.65234375 C-13.29610687 9.89936508 -13.31877625 9.14638641 -13.34213257 8.37059021 C-13.33349609 6.26147461 -13.33349609 6.26147461 -12.75 2.75 C-8.72341727 -0.72975757 -5.06036327 -0.51676157 0 0 Z " fill="#D17346" transform="translate(809.75,516.25)"/>
<path d="M0 0 C5.01197436 3.66729831 8.38318383 9.42618157 11 15 C11.59908074 19.06043611 11.43402935 21.04513544 9.75 24.75 C6.63888889 28.75 6.63888889 28.75 4 30 C0.94758154 29.94190899 -1.99697272 29.53258817 -5 29 C-3.98809371 32.03571888 -2.69309234 34.36014588 -1.05859375 37.10546875 C-0.47529297 38.08837891 0.10800781 39.07128906 0.70898438 40.08398438 C1.32064453 41.10814453 1.93230469 42.13230469 2.5625 43.1875 C3.17802734 44.22326172 3.79355469 45.25902344 4.42773438 46.32617188 C5.94926754 48.88565014 7.47345018 51.44351173 9 54 C8.01 54.495 8.01 54.495 7 55 C6.9175 54.38125 6.835 53.7625 6.75 53.125 C6.21402521 50.89696204 6.21402521 50.89696204 4.375 50 C3.199375 49.505 3.199375 49.505 2 49 C0.24886032 47.98596795 -1.48533331 46.94633334 -3.21875 45.90234375 C-8.82870174 43.0604603 -15.6022743 43.15056858 -21.59375 44.6484375 C-32.62178508 48.6307835 -37.5439677 55.17710433 -42.47509766 65.40136719 C-45.14348017 71.11330978 -46.20462296 75.55613993 -46.25 81.8125 C-46.270625 82.51181641 -46.29125 83.21113281 -46.3125 83.93164062 C-46.34871886 88.77138515 -45.28705521 91.79659359 -43 96 C-43.495 96.99 -43.495 96.99 -44 98 C-44.96671756 96.94512267 -45.92298745 95.88066719 -46.875 94.8125 C-47.40867187 94.22082031 -47.94234375 93.62914062 -48.4921875 93.01953125 C-53.42151622 86.41729563 -52.78054402 77.86007831 -52 70 C-49.60577434 59.06274188 -43.44645394 48.22391781 -34 42 C-25.78478829 37.63774473 -19.11932282 35.50629296 -10 38 C-9.01 38.33 -8.02 38.66 -7 39 C-7.45890625 38.34773437 -7.9178125 37.69546875 -8.390625 37.0234375 C-9.65895666 35.21686425 -10.92039795 33.40543866 -12.17578125 31.58984375 C-13.53460501 29.66072137 -14.9680422 27.78374185 -16.4375 25.9375 C-18.57933462 21.91085092 -18.35738159 18.46726984 -18 14 C-17.34 14 -16.68 14 -16 14 C-15.9175 13.13375 -15.835 12.2675 -15.75 11.375 C-14.74591153 6.8566019 -12.9224817 3.4584344 -9.1875 0.625 C-5.90160407 -0.31382741 -3.40178565 -0.41776315 0 0 Z " fill="#EFF6E8" transform="translate(486,518)"/>
<path d="M0 0 C1.27617188 0.00483398 1.27617188 0.00483398 2.578125 0.00976562 C3.46757813 0.01814453 4.35703125 0.02652344 5.2734375 0.03515625 C6.170625 0.03966797 7.0678125 0.04417969 7.9921875 0.04882812 C10.21100398 0.06063034 12.42968768 0.0770947 14.6484375 0.09765625 C17.01895212 5.74890514 17.02936438 11.12285177 17.15087891 17.15185547 C17.18043167 18.2548851 17.20998444 19.35791473 17.24043274 20.49436951 C17.33567964 24.13019768 17.41790174 27.7661969 17.5 31.40234375 C17.56359958 33.92727661 17.6280129 36.4521891 17.69320679 38.9770813 C17.84513768 44.93723661 17.98887748 50.89755357 18.12862337 56.85800374 C18.28824463 63.64659023 18.45836877 70.43490094 18.62935758 77.22320914 C18.98070408 91.18108331 19.31891839 105.13925094 19.6484375 119.09765625 C14.8984375 120.22265625 14.8984375 120.22265625 12.6484375 119.09765625 C12.33101853 110.78533877 12.01930466 102.47281432 11.7109375 94.16015625 C11.66486359 92.91903076 11.61878967 91.67790527 11.57131958 90.39916992 C10.90507678 72.33755935 10.34061037 54.27788034 9.99047852 36.20727539 C9.79959206 26.81011351 9.36816333 17.47050839 8.6484375 8.09765625 C7.58423584 8.03054443 6.52003418 7.96343262 5.42358398 7.89428711 C-5.2265625 7.22265625 -5.2265625 7.22265625 -6.3515625 6.09765625 C-6.39220082 4.4314851 -6.3942835 2.7637753 -6.3515625 1.09765625 C-4.00303722 -0.07660639 -2.61382185 -0.01742548 0 0 Z " fill="#EFF6E8" transform="translate(808.3515625,509.90234375)"/>
<path d="M0 0 C0.87454834 0.00523682 1.74909668 0.01047363 2.65014648 0.01586914 C3.59438477 0.0190918 4.53862305 0.02231445 5.51147461 0.02563477 C6.50469727 0.03401367 7.49791992 0.04239258 8.52124023 0.05102539 C9.51833008 0.05553711 10.51541992 0.06004883 11.54272461 0.06469727 C14.01478872 0.07652532 16.48673541 0.0930069 18.95874023 0.11352539 C20.42486821 3.04578134 20.21794654 5.74617139 20.34765625 9.01904297 C20.39176636 10.08543503 20.39176636 10.08543503 20.43676758 11.17337036 C20.53324059 13.53477497 20.62305682 15.8963816 20.71264648 18.25805664 C20.77815142 19.90558654 20.84398781 21.5531033 20.91014099 23.2006073 C21.0482624 26.66488266 21.18325949 30.12926123 21.31591797 33.59375 C21.48476817 38.00039728 21.65981738 42.40676931 21.83709812 46.8130846 C21.97383958 50.22342563 22.10790259 53.63386791 22.24113274 57.04434776 C22.30467585 58.6664145 22.36885425 60.28845649 22.43371773 61.91047096 C24.01406163 101.66790091 24.01406163 101.66790091 15.95874023 112.11352539 C14.47374023 113.10352539 14.47374023 113.10352539 12.95874023 114.11352539 C13.47283133 111.28602436 14.11153999 108.63130134 14.98120117 105.88671875 C15.98216764 102.02309817 16.21717588 98.78808944 16.22436523 94.80493164 C16.2270491 94.10126968 16.22973297 93.39760773 16.23249817 92.67262268 C16.23646488 90.34024388 16.22366719 88.00835518 16.20874023 85.67602539 C16.20558304 84.46471954 16.20558304 84.46471954 16.20236206 83.22894287 C16.15726225 68.2203831 15.64776922 53.23281465 15.02124023 38.23852539 C14.97785522 37.19133331 14.93447021 36.14414124 14.88977051 35.06521606 C14.76291238 32.06283824 14.62998244 29.06081047 14.49389648 26.05883789 C14.45529007 25.17071915 14.41668365 24.2826004 14.37690735 23.36756897 C14.13262646 18.23643866 13.66153949 13.20265995 12.95874023 8.11352539 C11.89913086 8.05293945 10.83952148 7.99235352 9.74780273 7.92993164 C8.35976802 7.84552412 6.97174792 7.76087623 5.58374023 7.67602539 C4.88506836 7.63670898 4.18639648 7.59739258 3.46655273 7.55688477 C-1.81469727 7.22680664 -1.81469727 7.22680664 -4.04125977 6.11352539 C-2.97364397 0.16538027 -2.97364397 0.16538027 0 0 Z " fill="#EFF6E8" transform="translate(761.041259765625,509.886474609375)"/>
<path d="M0 0 C6.18160604 0.53753096 11.326858 2.54582388 17 5 C17 5.66 17 6.32 17 7 C17.66 7.33 18.32 7.66 19 8 C18.39671875 7.855625 17.7934375 7.71125 17.171875 7.5625 C16.37265625 7.376875 15.5734375 7.19125 14.75 7 C13.96109375 6.814375 13.1721875 6.62875 12.359375 6.4375 C9.74443998 5.87845172 9.74443998 5.87845172 6 6 C-0.52752754 21.39511213 -5.7957443 37.23449025 0.078125 53.9140625 C1.75165456 57.7007777 3.8282901 60.8282901 6.75 63.75 C8 65 8 65 8 67 C9.32 67.33 10.64 67.66 12 68 C11.67 68.66 11.34 69.32 11 70 C0.53594047 63.27310459 -6.28859002 56.00878101 -9.53125 43.6171875 C-12.14148427 29.04337948 -8.18129068 12.27193602 0 0 Z " fill="#EFF6E8" transform="translate(385,584)"/>
<path d="M0 0 C3.86159314 1.51705445 6.07243554 3.29907625 8 7 C7.42602095 10.50288148 6.30459749 13.70653084 5 17 C6.98 17.33 8.96 17.66 11 18 C12.17745616 22.31733926 11.63788234 25.60569943 11 30 C10.26155385 37.40180143 10.26155385 37.40180143 13 44.0625 C19.22707162 48.08415042 26.28263499 48.34288801 33.5 48.625 C34.73363281 48.68300781 34.73363281 48.68300781 35.9921875 48.7421875 C37.9944701 48.83531692 39.99720262 48.91868985 42 49 C39.0855793 51.94946383 36.9442884 53.27470405 32.85546875 53.49609375 C31.29935715 53.49741361 29.74310256 53.47732137 28.1875 53.4375 C27.41857422 53.44458984 26.64964844 53.45167969 25.85742188 53.45898438 C18.78733698 53.38142226 13.44977666 52.06531106 7.98828125 47.4609375 C5.22657256 42.65371962 5.65279076 39.01825432 6.1875 33.625 C6.25775391 32.69816406 6.32800781 31.77132812 6.40039062 30.81640625 C6.57630984 28.54118446 6.77672406 26.27098069 7 24 C6.39744385 23.86867676 5.7948877 23.73735352 5.17407227 23.60205078 C4.37541748 23.42657715 3.5767627 23.25110352 2.75390625 23.0703125 C1.57163452 22.81145264 1.57163452 22.81145264 0.36547852 22.54736328 C-2.79623585 21.81575387 -5.89021027 20.92632034 -9 20 C-9 18.68 -9 17.36 -9 16 C-7.35 15.67 -5.7 15.34 -4 15 C-3.79503906 14.16855469 -3.59007812 13.33710937 -3.37890625 12.48046875 C-2.97478516 10.85044922 -2.97478516 10.85044922 -2.5625 9.1875 C-2.29566406 8.10855469 -2.02882813 7.02960937 -1.75390625 5.91796875 C-1.23922588 3.9259157 -0.65062825 1.95188476 0 0 Z " fill="#EFF6E8" transform="translate(714,558)"/>
<path d="M0 0 C7.01266653 5.0727556 12.31246112 12.77298341 15.45703125 20.77734375 C14.96203125 22.26234375 14.96203125 22.26234375 14.45703125 23.77734375 C13.998125 23.04128906 13.53921875 22.30523438 13.06640625 21.546875 C12.4528125 20.57105469 11.83921875 19.59523438 11.20703125 18.58984375 C10.60375 17.62691406 10.00046875 16.66398438 9.37890625 15.671875 C5.32485098 9.56607224 1.73187063 5.39296393 -5.46875 3.1875 C-13.33464661 1.63209672 -19.64388034 2.8332188 -26.54296875 6.77734375 C-27.22230469 7.13183594 -27.90164063 7.48632812 -28.6015625 7.8515625 C-36.89594534 12.97694137 -42.22702386 24.53672365 -44.54296875 33.77734375 C-44.76238483 36.90881598 -44.73301066 40.01532225 -44.66796875 43.15234375 C-44.65894531 43.98378906 -44.64992188 44.81523438 -44.640625 45.671875 C-44.61723095 47.70715712 -44.581366 49.74228939 -44.54296875 51.77734375 C-47.59929707 48.98678311 -48.4618952 46.97629684 -48.74609375 42.7734375 C-48.92705597 29.03538903 -45.5225761 17.11000358 -36.5078125 6.34765625 C-25.7899957 -3.96167751 -13.26157326 -7.20510673 0 0 Z " fill="#EEF5E7" transform="translate(562.54296875,567.22265625)"/>
<path d="M0 0 C4.90938552 3.92750842 6.66955107 7.35640857 7.4375 13.5 C6.88233975 17.94128199 5.37528192 19.18726506 2 22 C1.34 22.66 0.68 23.32 0 24 C-3.61097751 24.64997595 -6.00073389 24.55805437 -9.23828125 22.75 C-12.34074611 20.36942306 -14.65924733 18.51610247 -15.5390625 14.6015625 C-15.57015215 11.39932866 -15.44149591 8.88299182 -14 6 C-14.66 5.67 -15.32 5.34 -16 5 C-15.34 5 -14.68 5 -14 5 C-14 4.34 -14 3.68 -14 3 C-8.9550381 -0.3976274 -6.13338111 -1.93087924 0 0 Z " fill="#D17346" transform="translate(640,520)"/>
<path d="M0 0 C7.92979887 6.48801726 13.50846937 14.94270927 14.75 25.25 C14.86240298 27.49805957 14.92453439 29.74916945 14.9375 32 C14.95167969 33.12921875 14.96585938 34.2584375 14.98046875 35.421875 C14.75 38.25 14.75 38.25 12.75 40.25 C12.65203125 39.19941406 12.5540625 38.14882813 12.453125 37.06640625 C11.25724014 25.38320983 9.30059495 15.13738541 -0.25 7.25 C-7.12948466 3.25233049 -14.29447622 0.73121819 -22.25 2.25 C-32.90596149 5.68478962 -41.31503064 10.36380361 -47 20.3125 C-48.14292315 22.9983694 -48.8267258 25.37173544 -49.25 28.25 C-49.91 28.25 -50.57 28.25 -51.25 28.25 C-50.74583972 19.17511498 -47.26508632 11.17541779 -40.546875 4.91796875 C-27.70066428 -4.41082713 -14.52597293 -7.82167773 0 0 Z " fill="#ECF2E3" transform="translate(653.25,555.75)"/>
<path d="M0 0 C3.26778393 2.12016933 6.24076697 4.48153395 8 8 C8.37766377 13.00404498 8.11200434 15.99885156 5 20 C3.375 21.875 3.375 21.875 1 23 C-3.6367926 23.30086059 -7.70279104 22.6449447 -11.5 19.875 C-14.54861378 16.36909416 -15.0797406 14.62495454 -15 10 C-13.82486646 6.0828882 -12.86098819 3.74140649 -9.75 1.0625 C-6.10772243 -0.34474361 -3.88369007 -0.60264156 0 0 Z " fill="#D17346" transform="translate(489,525)"/>
<path d="M0 0 C3.36120571 2.56091864 4.70868619 5.58888416 5.55078125 9.66796875 C5.83592765 13.72152052 5.80006383 16.72970367 3.59765625 20.2265625 C1.10480316 22.8776054 -1.29486994 24.65603412 -4.5625 26.25 C-8.45985625 25.85027115 -10.29770042 23.70229958 -13 21 C-15.54676486 17.52713882 -15.3628022 14.20850557 -15 10 C-12.31973053 2.80559247 -8.00960995 -1.57331624 0 0 Z " fill="#3FBDBE" transform="translate(639,579)"/>
<path d="M0 0 C2.19921875 1.6328125 2.19921875 1.6328125 4 4 C4.390625 7.453125 4.390625 7.453125 4.25 11.25 C4.21390625 12.51328125 4.1778125 13.7765625 4.140625 15.078125 C4.07101562 16.52445313 4.07101562 16.52445313 4 18 C-2.03063178 21.98021698 -2.03063178 21.98021698 -6.0625 22.0625 C-10.7107576 20.38121534 -13.91859447 17.83368764 -16.4375 13.5625 C-17.42526456 9.06268369 -16.70981677 6.11542635 -14.25 2.25 C-9.4945178 -2.5054822 -6.17867729 -2.47147092 0 0 Z " fill="#D17346" transform="translate(464,526)"/>
<path d="M0 0 C3.16257314 2.53005851 5.77306268 5.09610852 7 9 C7.57183298 14.14649682 7.57183298 14.14649682 7 17 C4.82425584 19.69105198 3.08934144 21.45532928 0 23 C-2.3329866 23.04022391 -4.66706666 23.04320247 -7 23 C-7 22.34 -7 21.68 -7 21 C-7.86625 20.9071875 -7.86625 20.9071875 -8.75 20.8125 C-12.13290079 19.59089694 -13.26721396 18.132344 -15 15 C-14.28061917 9.33487597 -12.55139862 5.55022948 -9 1 C-5.86128812 -0.56935594 -3.46144178 -0.35201103 0 0 Z " fill="#D17346" transform="translate(730,542)"/>
<path d="M0 0 C4.28622158 2.98171936 5.81509939 6.10808615 6.77734375 11.078125 C7.08640261 13.74579099 7.04075441 15.50218941 6 18 C3.34707343 20.80898107 1.31396282 21.90115985 -2.375 23.0625 C-6.52204747 22.99099918 -8.43319092 22.29992794 -11.60546875 19.71484375 C-13.76360861 17.06099669 -14.14578999 14.72503645 -14.28125 11.35546875 C-13.81497412 7.45040822 -12.2939217 4.17744631 -10 1 C-6.76941469 -0.61529266 -3.49292619 -0.57656747 0 0 Z " fill="#D17346" transform="translate(703,542)"/>
<path d="M0 0 C0 0.66 0 1.32 0 2 C0.66 2 1.32 2 2 2 C5.31150602 7.5585994 6.56909729 11.51229092 6 18 C4.14709648 19.85290352 1.23375369 19.21658627 -1.25 19.25 C-2.38953125 19.27578125 -3.5290625 19.3015625 -4.703125 19.328125 C-8.31680379 18.96846976 -10.1765996 18.25976409 -13 16 C-13.72694602 11.71909568 -13.31068975 9.57699525 -11.25 5.75 C-7.70955662 1.42279142 -5.73529448 -0.47794121 0 0 Z " fill="#3FBDBE" transform="translate(474,583)"/>
<path d="M0 0 C5.73312402 5.86342229 5.73312402 5.86342229 6 10 C5.71395102 11.67542976 5.38218767 13.34385343 5 15 C5 15.99 5 16.98 5 18 C2.77144426 18.0814222 0.54202345 18.13938079 -1.6875 18.1875 C-3.54955078 18.23970703 -3.54955078 18.23970703 -5.44921875 18.29296875 C-9.18564321 17.9846829 -11.00629483 17.18088273 -14 15 C-12.39579206 4.12938042 -12.39579206 4.12938042 -8 0 C-4.56115451 -1.14628183 -3.38505312 -1.20894754 0 0 Z " fill="#3FBDBE" transform="translate(553,594)"/>
<path d="M0 0 C-0.64149542 5.33357625 -2.80945839 7.14887181 -6.83984375 10.42578125 C-18.42507121 18.86854195 -37.33515223 18.48146236 -51.13378906 16.72900391 C-60.93735987 15.06264013 -60.93735987 15.06264013 -64 12 C-60.70575591 10.90191864 -59.817504 11.11974037 -56.5625 11.9375 C-43.78970239 14.6429773 -24.85122755 14.06762195 -13 8 C-10.12307016 6.04164643 -7.70152487 3.78247005 -5.375 1.1875 C-4 0 -4 0 0 0 Z " fill="#F0F7E9" transform="translate(478,623)"/>
<path d="M0 0 C2.8125 2.5 2.8125 2.5 5 5 C5.33 5.33 5.66 5.66 6 6 C6.23287008 7.68183948 6.41264166 9.3712416 6.5625 11.0625 C6.68818359 12.44115234 6.68818359 12.44115234 6.81640625 13.84765625 C6.87699219 14.55792969 6.93757812 15.26820313 7 16 C6.67 15.34 6.34 14.68 6 14 C5.34 14 4.68 14 4 14 C3.319375 12.824375 3.319375 12.824375 2.625 11.625 C0.85795579 8.77054397 0.19729511 7.88813753 -3 7 C-7.36072562 7.31714368 -11.02459037 8.19299562 -15 10 C-15 10.66 -15 11.32 -15 12 C-15.66 12 -16.32 12 -17 12 C-16.72991214 8.12874073 -16.24063252 6.29410641 -13.75 3.25 C-9.11698003 -0.5406527 -5.86521885 -1.83288089 0 0 Z " fill="#EEF5E7" transform="translate(641,513)"/>
<path d="M0 0 C3.50367054 2.83275491 4.79129718 4.29679304 5.33984375 8.7734375 C5.42692308 16.14615385 5.42692308 16.14615385 4 19 C3.34 19 2.68 19 2 19 C1.7525 17.7625 1.505 16.525 1.25 15.25 C0.2470317 11.42787757 -0.47059166 9.117645 -4 7 C-7.36070737 6.68295214 -10.63583986 6.76887449 -14 7 C-14 7.66 -14 8.32 -14 9 C-14.66 9 -15.32 9 -16 9 C-15.39766349 6.05524375 -14.82333066 3.7543489 -12.5546875 1.67578125 C-8.21657187 -1.096333 -5.03050136 -1.67683379 0 0 Z " fill="#EBF3E5" transform="translate(707,536)"/>
<path d="M0 0 C-1 3 -1 3 -4.21875 5.171875 C-10.09228354 7.92509385 -16.14639663 7.43153152 -22.5 7.25 C-23.70398438 7.23195313 -24.90796875 7.21390625 -26.1484375 7.1953125 C-29.09979605 7.14846554 -32.04947036 7.08288005 -35 7 C-35 4 -35 4 -34 3 C-32.14494267 2.86611047 -30.28517746 2.79644848 -28.42578125 2.75390625 C-27.28302734 2.72103516 -26.14027344 2.68816406 -24.96289062 2.65429688 C-22.54891154 2.59359221 -20.13484546 2.53624452 -17.72070312 2.48242188 C-15.9969043 2.43118164 -15.9969043 2.43118164 -14.23828125 2.37890625 C-13.18680908 2.3538501 -12.13533691 2.32879395 -11.05200195 2.30297852 C-7.22330689 1.92289608 -3.78408668 0 0 0 Z " fill="#EFF2E4" transform="translate(695,604)"/>
<path d="M0 0 C3.03722485 2.84127486 4.84716597 4.68950912 5.1328125 9.0078125 C5.11111111 14.88888889 5.11111111 14.88888889 4 16 C1.92060164 16.15272417 -0.16518931 16.22195322 -2.25 16.25 C-3.38953125 16.27578125 -4.5290625 16.3015625 -5.703125 16.328125 C-9.26446986 15.97367836 -11.1175917 15.05886307 -14 13 C-13.67 12.01 -13.34 11.02 -13 10 C-8.05 10.33 -3.1 10.66 2 11 C1.34 7.37 0.68 3.74 0 0 Z " fill="#F0F7E9" transform="translate(475,586)"/>
<path d="M0 0 C12.87 0.495 12.87 0.495 26 1 C26.66 2.32 27.32 3.64 28 5 C23.54172074 5.0578304 19.0835372 5.09353855 14.625 5.125 C13.35398437 5.14175781 12.08296875 5.15851562 10.7734375 5.17578125 C9.56171875 5.18222656 8.35 5.18867187 7.1015625 5.1953125 C5.98088379 5.20578613 4.86020508 5.21625977 3.70556641 5.22705078 C1 5 1 5 -1 3 C-0.67 2.01 -0.34 1.02 0 0 Z " fill="#F0F7E9" transform="translate(581,606)"/>
<path d="M0 0 C0.66 0 1.32 0 2 0 C2.2475 1.093125 2.495 2.18625 2.75 3.3125 C3.72153734 6.91707262 3.72153734 6.91707262 5.6875 9 C9.14011307 10.49302187 11.4226815 9.97563232 15 9 C16.82337753 7.0431712 16.82337753 7.0431712 18 5 C18.66 5 19.32 5 20 5 C19.44024482 8.71249393 18.01974732 10.33951132 15.25 12.8125 C14.57453125 13.43769531 13.8990625 14.06289063 13.203125 14.70703125 C11 16 11 16 8.40625 15.8828125 C4.2152257 14.34519644 1.97890076 10.95780152 0 7 C-0.04022391 4.6670134 -0.04320247 2.33293334 0 0 Z " fill="#E8ECDD" transform="translate(624,589)"/>
<path d="M0 0 C5.94 0.33 11.88 0.66 18 1 C18.33 2.32 18.66 3.64 19 5 C16.77144426 5.0814222 14.54202345 5.13938079 12.3125 5.1875 C10.45044922 5.23970703 10.45044922 5.23970703 8.55078125 5.29296875 C4.80008965 4.98350575 2.93281045 4.31596695 0 2 C0 1.34 0 0.68 0 0 Z " fill="#F0F7E9" transform="translate(539,607)"/>
</svg>
